HIERARCHY
ROOT Hips
{
	OFFSET 1.324476 86.935013 4.250773
	CHANNELS 6 Xposition Yposition Zposition Zrotation Yrotation Xrotation 
	JOINT Spine
	{
		OFFSET 0.000000 8.814246 -2.080107
		CHANNELS 3 Zrotation Yrotation Xrotation
		JOINT Spine1
		{
			OFFSET 0.000000 8.844141 -0.000000
			CHANNELS 3 Zrotation Yrotation Xrotation
			JOINT Spine2
			{
				OFFSET 0.000000 11.682268 0.000000
				CHANNELS 3 Zrotation Yrotation Xrotation
				JOINT Spine3
				{
					OFFSET 0.000000 11.746700 0.000000
					CHANNELS 3 Zrotation Yrotation Xrotation
					JOINT Neck
					{
						OFFSET -0.000000 17.658264 -0.000000
						CHANNELS 3 Zrotation Yrotation Xrotation
						JOINT Neck1
						{
							OFFSET 0.000000 5.101515 -0.000000
							CHANNELS 3 Zrotation Yrotation Xrotation
							JOINT Head
							{
								OFFSET 0.000000 5.101515 0.000000
								CHANNELS 3 Zrotation Yrotation Xrotation
								JOINT HeadEnd
								{
									OFFSET -0.000000 11.655085 0.000000
									CHANNELS 3 Zrotation Yrotation Xrotation
									End Site
									{
										OFFSET 0.000000 0.000000 0.000000
									}
								}
							}
						}
					}
					JOINT RightShoulder
					{
						OFFSET -2.625389 11.175210 -0.000000
						CHANNELS 3 Zrotation Yrotation Xrotation
						JOINT RightArm
						{
							OFFSET -0.000000 10.434715 -0.000000
							CHANNELS 3 Zrotation Yrotation Xrotation
							JOINT RightForeArm
							{
								OFFSET -0.000000 29.628420 -0.000000
								CHANNELS 3 Zrotation Yrotation Xrotation
								JOINT RightHand
								{
									OFFSET -0.000000 22.857611 -0.000000
									CHANNELS 3 Zrotation Yrotation Xrotation
									JOINT RightHandThumb1
									{
										OFFSET -2.867323 3.959563 2.944291
										CHANNELS 3 Zrotation Yrotation Xrotation
										JOINT RightHandThumb2
										{
											OFFSET -0.000000 3.350399 0.000000
											CHANNELS 3 Zrotation Yrotation Xrotation
											JOINT RightHandThumb3
											{
												OFFSET 0.000000 3.756509 -0.000000
												CHANNELS 3 Zrotation Yrotation Xrotation
												JOINT RightHandThumb4
												{
													OFFSET 0.000000 3.147345 -0.000000
													CHANNELS 3 Zrotation Yrotation Xrotation
													End Site
													{
														OFFSET 0.000000 0.000000 0.000000
													}
												}
											}
										}
									}
									JOINT RightHandIndex1
									{
										OFFSET -0.086752 10.030893 2.345280
										CHANNELS 3 Zrotation Yrotation Xrotation
										JOINT RightHandIndex2
										{
											OFFSET -0.000000 4.061090 -0.000000
											CHANNELS 3 Zrotation Yrotation Xrotation
											JOINT RightHandIndex3
											{
												OFFSET 0.000000 3.248873 0.000000
												CHANNELS 3 Zrotation Yrotation Xrotation
												JOINT RightHandIndex4
												{
													OFFSET 0.000000 2.639709 -0.000000
													CHANNELS 3 Zrotation Yrotation Xrotation
													End Site
													{
														OFFSET 0.000000 0.000000 0.000000
													}
												}
											}
										}
									}
									JOINT RightHandMiddle1
									{
										OFFSET 0.104102 9.502952 0.006768
										CHANNELS 3 Zrotation Yrotation Xrotation
										JOINT RightHandMiddle2
										{
											OFFSET 0.000000 4.568727 0.000000
											CHANNELS 3 Zrotation Yrotation Xrotation
											JOINT RightHandMiddle3
											{
												OFFSET 0.000000 3.654981 -0.000000
												CHANNELS 3 Zrotation Yrotation Xrotation
												JOINT RightHandMiddle4
												{
													OFFSET -0.000000 2.741236 -0.000000
													CHANNELS 3 Zrotation Yrotation Xrotation
													End Site
													{
														OFFSET 0.000000 0.000000 0.000000
													}
												}
											}
										}
									}
									JOINT RightHandRing1
									{
										OFFSET 0.086752 8.921708 -2.267442
										CHANNELS 3 Zrotation Yrotation Xrotation
										JOINT RightHandRing2
										{
											OFFSET -0.000000 4.061090 0.000000
											CHANNELS 3 Zrotation Yrotation Xrotation
											JOINT RightHandRing3
											{
												OFFSET -0.000000 3.654981 -0.000000
												CHANNELS 3 Zrotation Yrotation Xrotation
												JOINT RightHandRing4
												{
													OFFSET -0.000000 2.741236 -0.000000
													CHANNELS 3 Zrotation Yrotation Xrotation
													End Site
													{
														OFFSET 0.000000 0.000000 0.000000
													}
												}
											}
										}
									}
									JOINT RightHandPinky1
									{
										OFFSET -0.173504 7.976997 -4.467199
										CHANNELS 3 Zrotation Yrotation Xrotation
										JOINT RightHandPinky2
										{
											OFFSET -0.000000 3.350399 -0.000000
											CHANNELS 3 Zrotation Yrotation Xrotation
											JOINT RightHandPinky3
											{
												OFFSET -0.000000 2.842763 -0.000000
												CHANNELS 3 Zrotation Yrotation Xrotation
												JOINT RightHandPinky4
												{
													OFFSET 0.000000 2.639709 0.000000
													CHANNELS 3 Zrotation Yrotation Xrotation
													End Site
													{
														OFFSET 0.000000 0.000000 0.000000
													}
												}
											}
										}
									}
									JOINT RightForeArmEnd
									{
										OFFSET 0.000000 0.000000 0.000000
										CHANNELS 3 Zrotation Yrotation Xrotation
										End Site
										{
											OFFSET 0.000000 0.000000 0.000000
										}
									}
								}
								JOINT RightArmEnd
								{
									OFFSET 0.000000 0.000000 0.000000
									CHANNELS 3 Zrotation Yrotation Xrotation
									End Site
									{
										OFFSET 0.000000 0.000000 0.000000
									}
								}
							}
						}
					}
					JOINT LeftShoulder
					{
						OFFSET 2.625389 11.175210 -0.000000
						CHANNELS 3 Zrotation Yrotation Xrotation
						JOINT LeftArm
						{
							OFFSET 0.000000 10.813635 0.000000
							CHANNELS 3 Zrotation Yrotation Xrotation
							JOINT LeftForeArm
							{
								OFFSET 0.000000 28.724781 -0.000000
								CHANNELS 3 Zrotation Yrotation Xrotation
								JOINT LeftHand
								{
									OFFSET 0.644384 25.716167 -0.328871
									CHANNELS 3 Zrotation Yrotation Xrotation
									JOINT LeftHandThumb1
									{
										OFFSET 2.867323 3.959563 2.944291
										CHANNELS 3 Zrotation Yrotation Xrotation
										JOINT LeftHandThumb2
										{
											OFFSET -0.000000 3.350399 -0.000000
											CHANNELS 3 Zrotation Yrotation Xrotation
											JOINT LeftHandThumb3
											{
												OFFSET -0.000000 3.756509 0.000000
												CHANNELS 3 Zrotation Yrotation Xrotation
												JOINT LeftHandThumb4
												{
													OFFSET 0.000000 3.100000 -0.000000
													CHANNELS 3 Zrotation Yrotation Xrotation
													End Site
													{
														OFFSET 0.000000 0.000000 0.000000
													}
												}
											}
										}
									}
									JOINT LeftHandIndex1
									{
										OFFSET 0.086752 10.030893 2.345280
										CHANNELS 3 Zrotation Yrotation Xrotation
										JOINT LeftHandIndex2
										{
											OFFSET 0.000000 4.061090 -0.000000
											CHANNELS 3 Zrotation Yrotation Xrotation
											JOINT LeftHandIndex3
											{
												OFFSET 0.000000 3.248873 -0.000000
												CHANNELS 3 Zrotation Yrotation Xrotation
												JOINT LeftHandIndex4
												{
													OFFSET -0.000000 2.639709 0.000000
													CHANNELS 3 Zrotation Yrotation Xrotation
													End Site
													{
														OFFSET 0.000000 0.000000 0.000000
													}
												}
											}
										}
									}
									JOINT LeftHandMiddle1
									{
										OFFSET -0.104102 9.502952 0.006768
										CHANNELS 3 Zrotation Yrotation Xrotation
										JOINT LeftHandMiddle2
										{
											OFFSET 0.000000 4.568727 -0.000000
											CHANNELS 3 Zrotation Yrotation Xrotation
											JOINT LeftHandMiddle3
											{
												OFFSET 0.000000 3.654981 -0.000000
												CHANNELS 3 Zrotation Yrotation Xrotation
												JOINT LeftHandMiddle4
												{
													OFFSET -0.000000 2.741236 0.000000
													CHANNELS 3 Zrotation Yrotation Xrotation
													End Site
													{
														OFFSET 0.000000 0.000000 0.000000
													}
												}
											}
										}
									}
									JOINT LeftHandRing1
									{
										OFFSET -0.086752 8.921708 -2.267442
										CHANNELS 3 Zrotation Yrotation Xrotation
										JOINT LeftHandRing2
										{
											OFFSET 0.000000 4.061090 -0.000000
											CHANNELS 3 Zrotation Yrotation Xrotation
											JOINT LeftHandRing3
											{
												OFFSET 0.000000 3.654981 -0.000000
												CHANNELS 3 Zrotation Yrotation Xrotation
												JOINT LeftHandRing4
												{
													OFFSET 0.000000 2.741236 0.000000
													CHANNELS 3 Zrotation Yrotation Xrotation
													End Site
													{
														OFFSET 0.000000 0.000000 0.000000
													}
												}
											}
										}
									}
									JOINT LeftHandPinky1
									{
										OFFSET 0.173504 7.976997 -4.467199
										CHANNELS 3 Zrotation Yrotation Xrotation
										JOINT LeftHandPinky2
										{
											OFFSET 0.000000 3.350399 -0.000000
											CHANNELS 3 Zrotation Yrotation Xrotation
											JOINT LeftHandPinky3
											{
												OFFSET -0.000000 2.842763 0.000000
												CHANNELS 3 Zrotation Yrotation Xrotation
												JOINT LeftHandPinky4
												{
													OFFSET 0.000000 2.639709 -0.000000
													CHANNELS 3 Zrotation Yrotation Xrotation
													End Site
													{
														OFFSET 0.000000 0.000000 0.000000
													}
												}
											}
										}
									}
									JOINT LeftForeArmEnd
									{
										OFFSET 0.000000 0.000000 0.000000
										CHANNELS 3 Zrotation Yrotation Xrotation
										End Site
										{
											OFFSET 0.000000 0.000000 0.000000
										}
									}
								}
								JOINT LeftArmEnd
								{
									OFFSET 0.000000 0.000000 0.000000
									CHANNELS 3 Zrotation Yrotation Xrotation
									End Site
									{
										OFFSET 0.000000 0.000000 0.000000
									}
								}
							}
						}
					}
				}
			}
		}
	}
	JOINT RightUpLeg
	{
		OFFSET -11.289943 -0.000000 0.000000
		CHANNELS 3 Zrotation Yrotation Xrotation
		JOINT RightLeg
		{
			OFFSET -0.000000 -38.200325 -0.000000
			CHANNELS 3 Zrotation Yrotation Xrotation
			JOINT RightFoot
			{
				OFFSET -0.000000 -39.900856 0.000000
				CHANNELS 3 Zrotation Yrotation Xrotation
				JOINT RightToeBase
				{
					OFFSET 0.000000 0.000000 15.261641
					CHANNELS 3 Zrotation Yrotation Xrotation
					JOINT RightToeBaseEnd
					{
						OFFSET 0.000000 -0.000000 7.370709
						CHANNELS 3 Zrotation Yrotation Xrotation
						End Site
						{
							OFFSET 0.000000 0.000000 0.000000
						}
					}
				}
				JOINT RightLegEnd
				{
					OFFSET 0.000000 0.000000 0.000000
					CHANNELS 3 Zrotation Yrotation Xrotation
					End Site
					{
						OFFSET 0.000000 0.000000 0.000000
					}
				}
			}
			JOINT RightUpLegEnd
			{
				OFFSET 0.000000 0.000000 0.000000
				CHANNELS 3 Zrotation Yrotation Xrotation
				End Site
				{
					OFFSET 0.000000 0.000000 0.000000
				}
			}
		}
	}
	JOINT LeftUpLeg
	{
		OFFSET 11.315661 0.000000 -0.000000
		CHANNELS 3 Zrotation Yrotation Xrotation
		JOINT LeftLeg
		{
			OFFSET -0.000000 -38.200325 0.000000
			CHANNELS 3 Zrotation Yrotation Xrotation
			JOINT LeftFoot
			{
				OFFSET -0.000000 -39.900856 0.000000
				CHANNELS 3 Zrotation Yrotation Xrotation
				JOINT LeftToeBase
				{
					OFFSET -0.000000 0.000000 15.261641
					CHANNELS 3 Zrotation Yrotation Xrotation
					JOINT LeftToeBaseEnd
					{
						OFFSET -0.000000 0.000000 7.539996
						CHANNELS 3 Zrotation Yrotation Xrotation
						End Site
						{
							OFFSET 0.000000 0.000000 0.000000
						}
					}
				}
				JOINT LeftLegEnd
				{
					OFFSET 0.000000 0.000000 0.000000
					CHANNELS 3 Zrotation Yrotation Xrotation
					End Site
					{
						OFFSET 0.000000 0.000000 0.000000
					}
				}
			}
			JOINT LeftUpLegEnd
			{
				OFFSET 0.000000 0.000000 0.000000
				CHANNELS 3 Zrotation Yrotation Xrotation
				End Site
				{
					OFFSET 0.000000 0.000000 0.000000
				}
			}
		}
	}
}
MOTION
Frames: 4
Frame Time: 0.016667
1.324476 86.935013 4.250773 -0.005520 -0.000820 -8.454336 -9.502729 2.132209 2.603971 23.001511 -7.753243 4.944421 -18.496262 2.613333 4.758206 6.376277 -2.118146 -0.085917 6.159887 1.680514 13.992615 -3.575328 1.129971 -5.854432 -0.653064 3.409355 -25.356731 0.000000 0.000000 0.000000 100.776543 -0.800587 3.953491 53.386036 -44.861557 2.161399 1.646132 15.969770 37.149387 2.687206 15.016356 -12.363097 9.441423 -1.728222 40.406590 0.000000 0.000000 -23.039999 0.000000 0.000000 -15.999999 0.000000 0.000000 0.000000 10.604505 0.000000 -9.643257 7.423153 0.000000 0.000000 7.423153 0.000000 0.000000 0.000000 0.000000 0.000000 11.399842 0.000000 -11.609115 7.979890 0.000000 0.000000 7.979890 0.000000 0.000000 0.000000 0.000000 0.000000 13.540874 0.000000 -12.430757 9.478612 0.000000 0.000000 9.478612 0.000000 0.000000 0.000000 0.000000 0.000000 14.975492 0.000000 -15.047190 10.482848 0.000000 0.000000 10.482848 0.000000 0.000000 0.000000 0.000000 0.000000 0.000000 0.000000 0.000000 0.000000 0.000000 0.000000 -95.208824 0.461970 4.229309 -60.893921 44.539249 -2.663038 -1.430935 -6.288035 50.052158 -2.959770 -13.881307 -14.714699 -8.844158 1.663611 40.678265 0.000000 0.000000 -21.599998 0.000000 0.000000 -15.000001 0.000000 0.000000 0.000000 -12.041668 0.000000 -12.461102 -8.429168 0.000000 0.000000 -8.429168 0.000000 0.000000 0.000000 0.000000 0.000000 -12.888119 -0.000000 -13.922879 -9.021683 0.000000 0.000000 -9.021683 0.000000 0.000000 0.000000 0.000000 0.000000 -15.009265 0.000000 -13.607731 -10.506484 0.000000 0.000000 -10.506484 0.000000 0.000000 0.000000 0.000000 0.000000 -16.041897 -0.000000 -13.917473 -11.229328 0.000000 0.000000 -11.229328 0.000000 0.000000 0.000000 0.000000 0.000000 0.000000 0.000000 0.000000 0.000000 0.000000 0.000000 -3.804071 -6.247012 10.866132 -0.277084 -1.224930 12.755727 -0.078077 -16.042011 13.849055 -0.819756 -0.598396 -27.499289 0.000000 0.000000 0.000000 0.000000 0.000000 0.000000 0.000000 0.000000 0.000000 6.390305 4.668367 7.751981 0.242041 1.004258 13.551477 -0.124300 2.065108 14.313011 0.291276 0.297029 -28.654657 0.000000 0.000000 0.000000 0.000000 0.000000 0.000000 0.000000 0.000000 0.000000 
1.305874 86.342804 4.525337 -0.357850 -0.290555 -10.364878 -1.383933 0.158130 6.369748 8.716388 -2.352623 1.644603 -8.084752 1.840986 9.489548 2.408267 -0.963127 -0.885951 7.271657 1.938735 12.801192 -2.874481 1.747729 -5.291011 -0.403288 3.292718 -24.465897 0.000000 0.000000 0.000000 99.665169 -1.550278 2.937578 58.861092 -42.330986 -0.166725 1.187635 18.044950 37.324158 1.377197 15.624436 -10.226443 9.297467 -1.719939 40.308720 -0.000000 0.000039 -22.968985 0.000001 0.000048 -15.838667 0.000001 -0.000006 -0.000030 9.312460 0.261609 -9.125856 7.110257 -0.061265 0.069010 7.174599 -0.028760 0.021397 -0.000020 0.000005 -0.000035 10.391904 0.085891 -11.276548 7.592492 -0.040558 0.031038 7.570757 -0.009423 0.031051 0.000032 0.000103 -0.000003 12.827506 -0.154861 -12.226705 9.082509 0.056673 -0.032714 9.024907 0.008390 -0.025482 -0.000024 0.000268 0.000015 14.280191 -0.428340 -14.953117 10.152637 0.118267 0.039328 10.093190 -0.004756 0.002454 -0.000134 -0.000005 0.000026 0.000000 0.000000 0.000000 0.000000 0.000000 0.000000 -93.320183 0.502687 4.906767 -58.310341 47.663502 0.467826 -1.838411 -8.953897 49.925381 -1.801064 -15.208846 -16.382671 -8.738678 1.634463 40.622280 0.000006 0.000035 -21.412994 -0.000040 -0.000035 -14.634561 -0.000243 -0.000001 -0.000755 -11.821632 0.286581 -12.274446 -7.949868 -0.014567 0.172652 -7.971897 0.025184 0.150244 0.000003 -0.000106 -0.000021 -12.702054 0.130133 -13.204255 -8.692208 -0.028021 0.051281 -8.375859 0.003886 0.040010 -0.001025 -0.000059 -0.000019 -14.989399 -0.114474 -12.121212 -10.190821 0.054932 -0.098714 -10.187984 -0.007561 -0.069449 0.000473 0.000008 0.000006 -16.643057 -0.420575 -12.077421 -11.255238 0.071631 -0.238698 -11.240358 -0.038458 -0.183328 -0.000763 0.000003 -0.000038 0.000000 0.000000 0.000000 0.000000 0.000000 0.000000 -4.132817 -6.463479 12.064756 -0.189266 -0.910865 12.680795 -0.450246 -14.383102 15.872417 -0.382250 -0.896511 -28.357174 0.000000 0.000000 0.000000 0.000000 0.000000 0.000000 0.000000 0.000000 0.000000 6.710035 4.442539 10.695416 0.212444 0.980655 11.697902 -0.227426 4.519070 15.816630 0.419173 0.142409 -27.818167 0.000000 0.000000 0.000000 0.000000 0.000000 0.000000 0.000000 0.000000 0.000000 
1.269163 86.311325 4.642265 -0.441669 -0.280056 -10.576406 -1.325053 0.160457 6.539973 8.589622 -2.337596 1.612328 -7.815794 1.724977 9.612171 2.393908 -0.975391 -0.848930 7.311064 1.914783 12.961068 -2.886674 1.731245 -5.191473 -0.397512 3.309312 -24.490286 0.000000 0.000000 0.000000 99.499725 -1.501129 2.955505 59.314922 -41.840431 -0.396699 1.217828 18.248964 37.693672 0.742623 15.968554 -10.513783 9.225330 -1.713542 40.348946 -0.000006 0.000050 -22.757101 0.000010 0.000039 -15.702793 0.000012 0.000001 -0.000042 8.899170 0.250911 -8.974293 6.947327 -0.065330 0.093344 7.009454 -0.033694 0.039171 -0.000008 0.000015 -0.000026 9.964138 0.081359 -11.153399 7.419737 -0.041601 0.036538 7.387911 -0.010679 0.035529 0.000032 0.000080 -0.000013 12.386147 -0.147648 -12.233027 8.914100 0.057881 -0.041306 8.854515 0.009687 -0.031412 -0.000026 0.000394 0.000010 13.952587 -0.401649 -15.053383 10.004649 0.119042 0.020223 9.948904 0.000460 -0.014127 -0.000200 -0.000000 0.000023 0.000000 0.000000 0.000000 0.000000 0.000000 0.000000 -93.292122 0.476931 4.861634 -58.440166 47.554672 0.387244 -1.827113 -8.754254 50.014839 -1.813457 -15.099732 -16.250908 -8.737679 1.629997 40.631737 0.000010 0.000041 -21.375095 -0.000045 -0.000035 -14.612644 -0.000186 0.000005 -0.000984 -11.770910 0.274429 -12.283058 -8.011610 -0.011065 0.176932 -8.040310 0.027437 0.150956 0.000014 -0.000079 -0.000020 -12.640168 0.124279 -13.249453 -8.740259 -0.026193 0.053033 -8.433969 0.004459 0.040907 -0.000956 -0.000063 -0.000042 -14.897873 -0.103840 -12.249974 -10.226647 0.051569 -0.100327 -10.215143 -0.008124 -0.071694 0.000485 0.000010 0.000008 -16.470871 -0.386942 -12.269901 -11.273270 0.062698 -0.244524 -11.241590 -0.042088 -0.190594 -0.000757 0.000009 -0.000048 0.000000 0.000000 0.000000 0.000000 0.000000 0.000000 -4.053350 -6.468326 12.369266 -0.185057 -0.921734 12.601936 -0.457086 -14.346843 15.790944 -0.380719 -0.878540 -28.357052 0.000000 0.000000 0.000000 0.000000 0.000000 0.000000 0.000000 0.000000 0.000000 6.900702 4.638342 11.089952 0.208780 0.975964 11.512408 -0.289385 4.282435 15.664358 0.420145 0.138035 -27.804848 0.000000 0.000000 0.000000 0.000000 0.000000 0.000000 0.000000 0.000000 0.000000 
1.245156 86.288696 4.767150 -0.489691 -0.319302 -10.725105 -1.284219 0.163937 6.655212 8.470051 -2.318052 1.482210 -7.570399 1.632596 9.796843 2.378190 -0.980509 -0.867772 7.337341 1.900975 12.964178 -2.890410 1.723366 -5.189915 -0.386498 3.315434 -24.475460 0.000000 0.000000 0.000000 99.435036 -1.468000 2.983718 59.652470 -41.558533 -0.585988 1.251354 18.444733 37.660015 0.396568 16.190765 -10.571806 9.193118 -1.709078 40.370548 -0.000007 0.000050 -22.658007 0.000009 0.000042 -15.638627 0.000012 0.000001 -0.000042 8.649201 0.245497 -8.886429 6.869401 -0.065677 0.102453 6.932986 -0.034361 0.044145 -0.000008 0.000013 -0.000025 9.708538 0.079027 -11.069777 7.345809 -0.041144 0.036530 7.308790 -0.010511 0.035311 0.000031 0.000070 -0.000013 12.112914 -0.143733 -12.217466 8.835282 0.056539 -0.040213 8.775535 0.009066 -0.029993 -0.000024 0.000488 0.000011 13.723557 -0.386967 -15.086617 9.924918 0.114340 0.029438 9.872289 -0.001788 -0.006741 -0.000278 -0.000001 0.000012 0.000000 0.000000 0.000000 0.000000 0.000000 0.000000 -93.296844 0.483768 4.845978 -58.419853 47.548424 0.357310 -1.816312 -8.629024 50.056751 -1.928788 -14.916910 -16.059202 -8.749282 1.628167 40.630711 0.000009 0.000042 -21.393229 -0.000047 -0.000036 -14.631453 -0.000143 0.000004 -0.001163 -11.813191 0.265870 -12.218676 -8.081681 -0.007692 0.184079 -8.116663 0.029993 0.154725 0.000013 -0.000073 -0.000020 -12.680601 0.121257 -13.216701 -8.795592 -0.024638 0.056286 -8.500763 0.005186 0.043186 -0.001022 -0.000065 -0.000058 -14.890900 -0.097501 -12.289101 -10.251542 0.048943 -0.103493 -10.238026 -0.009039 -0.074615 0.000573 0.000010 0.000008 -16.366013 -0.369053 -12.352698 -11.253530 0.055666 -0.252138 -11.226039 -0.045880 -0.199208 -0.000769 0.000009 -0.000048 0.000000 0.000000 0.000000 0.000000 0.000000 0.000000 -3.981538 -6.416526 12.640472 -0.182869 -0.930579 12.506677 -0.471968 -14.323990 15.695671 -0.388573 -0.865818 -28.312170 0.000000 0.000000 0.000000 0.000000 0.000000 0.000000 0.000000 0.000000 0.000000 7.020473 4.773633 11.409477 0.206397 0.973288 11.393799 -0.347228 4.210745 15.509354 0.418246 0.137736 -27.760900 0.000000 0.000000 0.000000 0.000000 0.000000 0.000000 0.000000 0.000000 0.000000 
